<svg width="19" height="17" viewBox="0 0 19 17" fill="none" xmlns="http://www.w3.org/2000/svg">
<path id="menu" d="M17.3151 13.2817C17.6776 13.2819 18.0262 13.4216 18.2886 13.6718C18.551 13.922 18.7071 14.2635 18.7245 14.6257C18.7419 14.9878 18.6194 15.3428 18.3822 15.617C18.145 15.8912 17.8115 16.0637 17.4506 16.0987L17.3151 16.1053H2.25625C1.89369 16.1051 1.5451 15.9654 1.28271 15.7152C1.02031 15.465 0.864236 15.1235 0.846813 14.7613C0.829389 14.3992 0.951957 14.0442 1.18912 13.77C1.42628 13.4958 1.75985 13.3233 2.12072 13.2883L2.25625 13.2817H17.3151ZM17.3151 6.6935C17.6895 6.6935 18.0486 6.84224 18.3133 7.10699C18.5781 7.37175 18.7268 7.73084 18.7268 8.10526C18.7268 8.47969 18.5781 8.83877 18.3133 9.10353C18.0486 9.36829 17.6895 9.51703 17.3151 9.51703H2.25625C1.88182 9.51703 1.52274 9.36829 1.25798 9.10353C0.993222 8.83877 0.844482 8.47969 0.844482 8.10526C0.844482 7.73084 0.993222 7.37175 1.25798 7.10699C1.52274 6.84224 1.88182 6.6935 2.25625 6.6935H17.3151ZM17.3151 0.105263C17.6895 0.105263 18.0486 0.254002 18.3133 0.518759C18.5781 0.783516 18.7268 1.1426 18.7268 1.51703C18.7268 1.89145 18.5781 2.25054 18.3133 2.5153C18.0486 2.78005 17.6895 2.92879 17.3151 2.92879H2.25625C1.88182 2.92879 1.52274 2.78005 1.25798 2.5153C0.993222 2.25054 0.844482 1.89145 0.844482 1.51703C0.844482 1.1426 0.993222 0.783516 1.25798 0.518759C1.52274 0.254002 1.88182 0.105263 2.25625 0.105263H17.3151Z" fill="#5E5E5E"/>
</svg>
