<svg width="20" height="21" viewBox="0 0 20 21" fill="none" xmlns="http://www.w3.org/2000/svg">
<g id="Group">
<path id="Vector" d="M1 10.9321C1 18.0431 6.57552 19.8211 9.36275 19.8211C10.7901 19.8211 12.8573 19.4641 14.7042 18.4311M17.5716 15.8211C18.396 14.5751 18.9209 12.9731 18.9209 10.9321C18.9209 6.40509 15.9324 3.17209 13.2305 1.31909C12.0098 0.481088 10.4876 1.40109 10.4876 2.83109V3.15409C10.4876 4.59609 9.84873 7.22809 8.0735 8.32309C7.16691 8.88209 6.18653 8.04509 6.0769 7.02509L5.98624 6.18709C5.88082 5.21309 4.83508 4.62209 4.01493 5.21609C3.21547 5.79091 2.53921 6.5054 2.02255 7.32109" stroke="#DC1E0F" stroke-width="1.5" stroke-linecap="round"/>
<path id="Vector_2" d="M6.27087 16.2661C6.27087 19.1101 8.89471 19.8211 10.2061 19.8211C11.3551 19.8211 13.6501 19.1101 13.6501 16.2661C13.6501 15.1641 13.0281 14.4211 12.4272 13.9921C12.0077 13.6931 11.4184 13.9621 11.274 14.4411C11.0863 15.0651 10.4064 15.4571 10.0596 14.8971C9.74332 14.3851 9.74332 13.6171 9.74332 13.1541C9.74332 12.5181 9.06865 12.1061 8.52575 12.4801C7.43679 13.2301 6.27087 14.5011 6.27087 16.2661Z" stroke="#DC1E0F" stroke-width="1.5"/>
</g>
</svg>
