<svg width="67" height="16" viewBox="0 0 67 16" fill="none" xmlns="http://www.w3.org/2000/svg">
<g id="Frame" clip-path="url(#clip0_16_1655)">
<g id="Group">
<g id="Group_2">
<path id="Vector" d="M7.64815 6.78394H4.11874C1.65577 6.78394 0 8.57406 0 11.2381C0 12.5274 0.374728 13.6318 1.08388 14.435C1.82026 15.2691 2.87037 15.7106 4.11983 15.7106H6.81482L7.64924 15.706C7.7756 15.706 7.86384 15.6113 7.86384 15.4756V13.7687C7.86384 13.633 7.7756 13.5383 7.64924 13.5383H4.15142C2.70915 13.5383 1.81373 12.6563 1.81373 11.237C1.81373 9.81768 2.70915 8.95285 4.15142 8.95285L7.64815 8.94829C7.77451 8.94829 7.86275 8.85359 7.86275 8.71782V7.01099C7.86275 6.87521 7.77451 6.78052 7.64815 6.78052V6.78394Z" fill="url(#paint0_linear_16_1655)"/>
<path id="Vector_2" d="M19.7724 1.27556C19.036 0.441541 17.9859 0 16.7364 0L13.207 0.00456373C13.0807 0.00456373 12.9924 0.0992611 12.9924 0.235032V1.94187C12.9924 2.07764 13.0807 2.17233 13.207 2.17233H16.7038C18.146 2.17233 19.0415 3.05428 19.0415 4.47359C19.0415 5.89291 18.146 6.75774 16.7038 6.75774L13.207 6.7623C13.0807 6.7623 12.9924 6.857 12.9924 6.99277V8.69961C12.9924 8.83538 13.0807 8.93007 13.207 8.93007H16.7364C19.2005 8.93007 20.8552 7.13995 20.8552 4.47474C20.8552 3.18548 20.4805 2.08106 19.7713 1.27784L19.7724 1.27556Z" fill="url(#paint1_linear_16_1655)"/>
<path id="Vector_3" d="M9.62408 1.86328C9.41929 1.65791 9.31689 1.4012 9.31689 1.09429C9.31689 0.787383 9.41929 0.531814 9.62408 0.325306C9.82888 0.119938 10.086 0.0161133 10.3953 0.0161133C10.7047 0.0161133 10.9618 0.118797 11.1666 0.325306C11.3714 0.531814 11.4738 0.787383 11.4738 1.09429C11.4738 1.4012 11.3714 1.65791 11.1666 1.86328C10.9618 2.06979 10.7047 2.17247 10.3953 2.17247C10.086 2.17247 9.82888 2.06979 9.62408 1.86328Z" fill="url(#paint2_linear_16_1655)"/>
<path id="Vector_4" d="M9.62408 8.62988C9.41929 8.42452 9.31689 8.16781 9.31689 7.8609C9.31689 7.55398 9.41929 7.29842 9.62408 7.09191C9.82888 6.88654 10.086 6.78271 10.3953 6.78271C10.7047 6.78271 10.9618 6.8854 11.1666 7.09191C11.3714 7.29842 11.4738 7.55398 11.4738 7.8609C11.4738 8.16781 11.3714 8.42452 11.1666 8.62988C10.9618 8.83639 10.7047 8.93908 10.3953 8.93908C10.086 8.93908 9.82888 8.83639 9.62408 8.62988Z" fill="url(#paint3_linear_16_1655)"/>
<path id="Vector_5" d="M9.62408 15.3569C9.41929 15.1516 9.31689 14.8949 9.31689 14.5879C9.31689 14.281 9.41929 14.0255 9.62408 13.819C9.82888 13.6136 10.086 13.5098 10.3953 13.5098C10.7047 13.5098 10.9618 13.6124 11.1666 13.819C11.3714 14.0255 11.4738 14.281 11.4738 14.5879C11.4738 14.8949 11.3714 15.1516 11.1666 15.3569C10.9618 15.5634 10.7047 15.6661 10.3953 15.6661C10.086 15.6661 9.82888 15.5634 9.62408 15.3569Z" fill="url(#paint4_linear_16_1655)"/>
</g>
<path id="Vector_6" d="M31.1526 7.37057C30.8748 7.90909 30.4391 8.34265 29.8476 8.67124C29.255 9.00097 28.5077 9.16526 27.6068 9.16526H25.767V13.5795H23.5654V2.0835H27.6068C28.4565 2.0835 29.1798 2.23752 29.7768 2.54443C30.3748 2.85248 30.8225 3.27463 31.121 3.81315C31.4195 4.35167 31.5687 4.96093 31.5687 5.64092C31.5687 6.25588 31.4293 6.83205 31.1515 7.37057H31.1526ZM28.865 6.86856C29.158 6.57763 29.3051 6.16803 29.3051 5.64092C29.3051 4.52053 28.707 3.96033 27.5121 3.96033H25.767V7.3044H27.5121C28.1199 7.3044 28.5709 7.1595 28.865 6.86742V6.86856Z" fill="url(#paint5_linear_16_1655)"/>
<path id="Vector_7" d="M32.2047 4.33204C31.9476 4.07419 31.8191 3.75245 31.8191 3.36795C31.8191 2.98346 31.9476 2.66286 32.2047 2.40387C32.4618 2.14602 32.7842 2.01709 33.172 2.01709C33.5598 2.01709 33.8823 2.14602 34.1394 2.40387C34.3964 2.66172 34.525 2.98346 34.525 3.36795C34.525 3.75245 34.3964 4.07419 34.1394 4.33204C33.8823 4.58989 33.5598 4.71882 33.172 4.71882C32.7842 4.71882 32.4618 4.58989 32.2047 4.33204ZM34.257 5.6327V13.5804H32.0555V5.6327H34.257Z" fill="url(#paint6_linear_16_1655)"/>
<path id="Vector_8" d="M43.2833 9.70936H36.914C36.9663 10.3677 37.1864 10.8845 37.5742 11.2576C37.962 11.6307 38.4391 11.8178 39.0055 11.8178C39.8236 11.8178 40.4053 11.4504 40.7517 10.7145H43.1264C42.8748 11.593 42.3922 12.3152 41.6798 12.88C40.9663 13.4459 40.0916 13.7277 39.0535 13.7277C38.2147 13.7277 37.462 13.5326 36.7964 13.1424C36.1308 12.7522 35.6112 12.2012 35.2397 11.4869C34.8672 10.7739 34.6809 9.9501 34.6809 9.01682C34.6809 8.08353 34.8639 7.24381 35.231 6.52958C35.5981 5.8165 36.1112 5.26657 36.7724 4.88208C37.4325 4.49758 38.1929 4.30591 39.0524 4.30591C39.9118 4.30591 40.6221 4.49302 41.2779 4.86611C41.9325 5.23919 42.4413 5.76972 42.8029 6.45542C43.1646 7.14227 43.3454 7.92951 43.3454 8.81944C43.3454 9.14916 43.3247 9.44581 43.2822 9.70936H43.2833ZM41.0654 8.16112C41.0545 7.56783 40.8508 7.0932 40.4522 6.73609C40.0535 6.37898 39.5665 6.201 38.9892 6.201C38.4434 6.201 37.9848 6.37442 37.6134 6.72012C37.2408 7.06582 37.0132 7.54615 36.9293 8.16112H41.0654Z" fill="url(#paint7_linear_16_1655)"/>
<path id="Vector_9" d="M47.1896 4.73487C47.646 4.46105 48.1667 4.323 48.7539 4.323V6.74406H48.1722C47.4805 6.74406 46.9587 6.91405 46.6079 7.25519C46.2561 7.59519 46.0807 8.18848 46.0807 9.03391V13.5805H43.8792V4.45535H46.0807V5.87238C46.3639 5.38977 46.7332 5.01098 47.1896 4.73602V4.73487Z" fill="url(#paint8_linear_16_1655)"/>
<path id="Vector_10" d="M49.5828 6.53871C49.9499 5.83019 50.4575 5.2814 51.1079 4.89121C51.7582 4.50101 52.5022 4.30591 53.341 4.30591C54.4205 4.30591 55.3148 4.58886 56.0218 5.15362C56.7299 5.71952 57.2037 6.51247 57.4445 7.5336H55.0697C54.9445 7.1377 54.732 6.82851 54.4325 6.6026C54.134 6.37784 53.7636 6.26489 53.3235 6.26489C52.695 6.26489 52.1961 6.50334 51.8301 6.98139C51.463 7.45944 51.28 8.13716 51.28 9.01568C51.28 9.89419 51.463 10.5559 51.8301 11.0328C52.1972 11.5109 52.695 11.7493 53.3235 11.7493C54.2146 11.7493 54.7963 11.3318 55.0686 10.4977H57.4434C57.2026 11.4858 56.7255 12.2708 56.012 12.8526C55.2985 13.4345 54.4074 13.7254 53.3388 13.7254C52.5 13.7254 51.756 13.5303 51.1057 13.1401C50.4554 12.7499 49.9466 12.2012 49.5806 11.4926C49.2135 10.7841 49.0305 9.95809 49.0305 9.01339C49.0305 8.0687 49.2135 7.24267 49.5806 6.53415L49.5828 6.53871Z" fill="url(#paint9_linear_16_1655)"/>
<path id="Vector_11" d="M66.4662 9.70936H60.0969C60.1492 10.3677 60.3692 10.8845 60.757 11.2576C61.1448 11.6307 61.6219 11.8178 62.1884 11.8178C63.0065 11.8178 63.5882 11.4504 63.9346 10.7145H66.3093C66.0577 11.593 65.5751 12.3152 64.8627 12.88C64.1492 13.4459 63.2744 13.7277 62.2363 13.7277C61.3975 13.7277 60.6448 13.5326 59.9792 13.1424C59.3137 12.7522 58.7941 12.2012 58.4226 11.4869C58.05 10.7739 57.8638 9.9501 57.8638 9.01682C57.8638 8.08353 58.0468 7.24381 58.4139 6.52958C58.781 5.8165 59.2941 5.26657 59.9553 4.88208C60.6154 4.49758 61.3758 4.30591 62.2352 4.30591C63.0947 4.30591 63.8049 4.49302 64.4607 4.86611C65.1154 5.23919 65.6241 5.76972 65.9858 6.45542C66.3474 7.14227 66.5283 7.92951 66.5283 8.81944C66.5283 9.14916 66.5076 9.44581 66.4651 9.70936H66.4662ZM64.2483 8.16112C64.2374 7.56783 64.0337 7.0932 63.635 6.73609C63.2363 6.37898 62.7494 6.201 62.172 6.201C61.6263 6.201 61.1677 6.37442 60.7962 6.72012C60.4237 7.06582 60.196 7.54615 60.1121 8.16112H64.2483Z" fill="url(#paint10_linear_16_1655)"/>
</g>
<g id="Group_3">
<g id="Group_4">
<path id="Vector_12" d="M7.64815 6.78394H4.11874C1.65577 6.78394 0 8.57406 0 11.2381C0 12.5274 0.374728 13.6318 1.08388 14.435C1.82026 15.2691 2.87037 15.7106 4.11983 15.7106H6.81482L7.64924 15.706C7.7756 15.706 7.86384 15.6113 7.86384 15.4756V13.7687C7.86384 13.633 7.7756 13.5383 7.64924 13.5383H4.15142C2.70915 13.5383 1.81373 12.6563 1.81373 11.237C1.81373 9.81768 2.70915 8.95285 4.15142 8.95285L7.64815 8.94829C7.77451 8.94829 7.86275 8.85359 7.86275 8.71782V7.01099C7.86275 6.87521 7.77451 6.78052 7.64815 6.78052V6.78394Z" fill="white"/>
<path id="Vector_13" d="M19.7724 1.27556C19.036 0.441541 17.9859 0 16.7364 0L13.207 0.00456373C13.0807 0.00456373 12.9924 0.0992611 12.9924 0.235032V1.94187C12.9924 2.07764 13.0807 2.17233 13.207 2.17233H16.7038C18.146 2.17233 19.0415 3.05428 19.0415 4.47359C19.0415 5.89291 18.146 6.75774 16.7038 6.75774L13.207 6.7623C13.0807 6.7623 12.9924 6.857 12.9924 6.99277V8.69961C12.9924 8.83538 13.0807 8.93007 13.207 8.93007H16.7364C19.2005 8.93007 20.8552 7.13995 20.8552 4.47474C20.8552 3.18548 20.4805 2.08106 19.7713 1.27784L19.7724 1.27556Z" fill="white"/>
<path id="Vector_14" d="M9.62408 1.86328C9.41929 1.65791 9.31689 1.4012 9.31689 1.09429C9.31689 0.787383 9.41929 0.531814 9.62408 0.325306C9.82888 0.119938 10.086 0.0161133 10.3953 0.0161133C10.7047 0.0161133 10.9618 0.118797 11.1666 0.325306C11.3714 0.531814 11.4738 0.787383 11.4738 1.09429C11.4738 1.4012 11.3714 1.65791 11.1666 1.86328C10.9618 2.06979 10.7047 2.17247 10.3953 2.17247C10.086 2.17247 9.82888 2.06979 9.62408 1.86328Z" fill="white"/>
<path id="Vector_15" d="M9.62408 8.62988C9.41929 8.42452 9.31689 8.16781 9.31689 7.8609C9.31689 7.55398 9.41929 7.29842 9.62408 7.09191C9.82888 6.88654 10.086 6.78271 10.3953 6.78271C10.7047 6.78271 10.9618 6.8854 11.1666 7.09191C11.3714 7.29842 11.4738 7.55398 11.4738 7.8609C11.4738 8.16781 11.3714 8.42452 11.1666 8.62988C10.9618 8.83639 10.7047 8.93908 10.3953 8.93908C10.086 8.93908 9.82888 8.83639 9.62408 8.62988Z" fill="white"/>
<path id="Vector_16" d="M9.62408 15.3569C9.41929 15.1516 9.31689 14.8949 9.31689 14.5879C9.31689 14.281 9.41929 14.0255 9.62408 13.819C9.82888 13.6136 10.086 13.5098 10.3953 13.5098C10.7047 13.5098 10.9618 13.6124 11.1666 13.819C11.3714 14.0255 11.4738 14.281 11.4738 14.5879C11.4738 14.8949 11.3714 15.1516 11.1666 15.3569C10.9618 15.5634 10.7047 15.6661 10.3953 15.6661C10.086 15.6661 9.82888 15.5634 9.62408 15.3569Z" fill="white"/>
</g>
<path id="Vector_17" d="M31.1526 7.37057C30.8748 7.90909 30.4391 8.34265 29.8476 8.67124C29.255 9.00097 28.5077 9.16526 27.6068 9.16526H25.767V13.5795H23.5654V2.0835H27.6068C28.4565 2.0835 29.1798 2.23752 29.7768 2.54443C30.3748 2.85248 30.8225 3.27463 31.121 3.81315C31.4195 4.35167 31.5687 4.96093 31.5687 5.64092C31.5687 6.25588 31.4293 6.83205 31.1515 7.37057H31.1526ZM28.865 6.86856C29.158 6.57763 29.3051 6.16803 29.3051 5.64092C29.3051 4.52053 28.707 3.96033 27.5121 3.96033H25.767V7.3044H27.5121C28.1199 7.3044 28.5709 7.1595 28.865 6.86742V6.86856Z" fill="white"/>
<path id="Vector_18" d="M32.2047 4.33204C31.9476 4.07419 31.8191 3.75245 31.8191 3.36795C31.8191 2.98346 31.9476 2.66286 32.2047 2.40387C32.4618 2.14602 32.7842 2.01709 33.172 2.01709C33.5598 2.01709 33.8823 2.14602 34.1394 2.40387C34.3964 2.66172 34.525 2.98346 34.525 3.36795C34.525 3.75245 34.3964 4.07419 34.1394 4.33204C33.8823 4.58989 33.5598 4.71882 33.172 4.71882C32.7842 4.71882 32.4618 4.58989 32.2047 4.33204ZM34.257 5.6327V13.5804H32.0555V5.6327H34.257Z" fill="white"/>
<path id="Vector_19" d="M43.2833 9.70936H36.914C36.9663 10.3677 37.1864 10.8845 37.5742 11.2576C37.962 11.6307 38.4391 11.8178 39.0055 11.8178C39.8236 11.8178 40.4053 11.4504 40.7517 10.7145H43.1264C42.8748 11.593 42.3922 12.3152 41.6798 12.88C40.9663 13.4459 40.0916 13.7277 39.0535 13.7277C38.2147 13.7277 37.462 13.5326 36.7964 13.1424C36.1308 12.7522 35.6112 12.2012 35.2397 11.4869C34.8672 10.7739 34.6809 9.9501 34.6809 9.01682C34.6809 8.08353 34.8639 7.24381 35.231 6.52958C35.5981 5.8165 36.1112 5.26657 36.7724 4.88208C37.4325 4.49758 38.1929 4.30591 39.0524 4.30591C39.9118 4.30591 40.6221 4.49302 41.2779 4.86611C41.9325 5.23919 42.4413 5.76972 42.8029 6.45542C43.1646 7.14227 43.3454 7.92951 43.3454 8.81944C43.3454 9.14916 43.3247 9.44581 43.2822 9.70936H43.2833ZM41.0654 8.16112C41.0545 7.56783 40.8508 7.0932 40.4522 6.73609C40.0535 6.37898 39.5665 6.201 38.9892 6.201C38.4434 6.201 37.9848 6.37442 37.6134 6.72012C37.2408 7.06582 37.0132 7.54615 36.9293 8.16112H41.0654Z" fill="white"/>
<path id="Vector_20" d="M47.1896 4.73487C47.646 4.46105 48.1667 4.323 48.7539 4.323V6.74406H48.1722C47.4805 6.74406 46.9587 6.91405 46.6079 7.25519C46.2561 7.59519 46.0807 8.18848 46.0807 9.03391V13.5805H43.8792V4.45535H46.0807V5.87238C46.3639 5.38977 46.7332 5.01098 47.1896 4.73602V4.73487Z" fill="white"/>
<path id="Vector_21" d="M49.5828 6.53871C49.9499 5.83019 50.4575 5.2814 51.1079 4.89121C51.7582 4.50101 52.5022 4.30591 53.341 4.30591C54.4205 4.30591 55.3148 4.58886 56.0218 5.15362C56.7299 5.71952 57.2037 6.51247 57.4445 7.5336H55.0697C54.9445 7.1377 54.732 6.82851 54.4325 6.6026C54.134 6.37784 53.7636 6.26489 53.3235 6.26489C52.695 6.26489 52.1961 6.50334 51.8301 6.98139C51.463 7.45944 51.28 8.13716 51.28 9.01568C51.28 9.89419 51.463 10.5559 51.8301 11.0328C52.1972 11.5109 52.695 11.7493 53.3235 11.7493C54.2146 11.7493 54.7963 11.3318 55.0686 10.4977H57.4434C57.2026 11.4858 56.7255 12.2708 56.012 12.8526C55.2985 13.4345 54.4074 13.7254 53.3388 13.7254C52.5 13.7254 51.756 13.5303 51.1057 13.1401C50.4554 12.7499 49.9466 12.2012 49.5806 11.4926C49.2135 10.7841 49.0305 9.95809 49.0305 9.01339C49.0305 8.0687 49.2135 7.24267 49.5806 6.53415L49.5828 6.53871Z" fill="white"/>
<path id="Vector_22" d="M66.4662 9.70936H60.0969C60.1492 10.3677 60.3692 10.8845 60.757 11.2576C61.1448 11.6307 61.6219 11.8178 62.1884 11.8178C63.0065 11.8178 63.5882 11.4504 63.9346 10.7145H66.3093C66.0577 11.593 65.5751 12.3152 64.8627 12.88C64.1492 13.4459 63.2744 13.7277 62.2363 13.7277C61.3975 13.7277 60.6448 13.5326 59.9792 13.1424C59.3137 12.7522 58.7941 12.2012 58.4226 11.4869C58.05 10.7739 57.8638 9.9501 57.8638 9.01682C57.8638 8.08353 58.0468 7.24381 58.4139 6.52958C58.781 5.8165 59.2941 5.26657 59.9553 4.88208C60.6154 4.49758 61.3758 4.30591 62.2352 4.30591C63.0947 4.30591 63.8049 4.49302 64.4607 4.86611C65.1154 5.23919 65.6241 5.76972 65.9858 6.45542C66.3474 7.14227 66.5283 7.92951 66.5283 8.81944C66.5283 9.14916 66.5076 9.44581 66.4651 9.70936H66.4662ZM64.2483 8.16112C64.2374 7.56783 64.0337 7.0932 63.635 6.73609C63.2363 6.37898 62.7494 6.201 62.172 6.201C61.6263 6.201 61.1677 6.37442 60.7962 6.72012C60.4237 7.06582 60.196 7.54615 60.1121 8.16112H64.2483Z" fill="white"/>
</g>
</g>
<defs>
<linearGradient id="paint0_linear_16_1655" x1="3.93137" y1="15.7106" x2="3.93137" y2="6.78394" gradientUnits="userSpaceOnUse">
<stop stop-color="#5A4BA6"/>
<stop offset="1" stop-color="#D14798"/>
</linearGradient>
<linearGradient id="paint1_linear_16_1655" x1="16.9249" y1="8.92779" x2="16.9249" y2="0" gradientUnits="userSpaceOnUse">
<stop stop-color="#5A4BA6"/>
<stop offset="1" stop-color="#D14798"/>
</linearGradient>
<linearGradient id="paint2_linear_16_1655" x1="10.3953" y1="2.17247" x2="10.3953" y2="0.0172543" gradientUnits="userSpaceOnUse">
<stop stop-color="#5A4BA6"/>
<stop offset="1" stop-color="#D14798"/>
</linearGradient>
<linearGradient id="paint3_linear_16_1655" x1="10.3953" y1="8.93908" x2="10.3953" y2="-0.000124666" gradientUnits="userSpaceOnUse">
<stop stop-color="#5A4BA6"/>
<stop offset="1" stop-color="#D14798"/>
</linearGradient>
<linearGradient id="paint4_linear_16_1655" x1="10.3953" y1="15.6661" x2="10.3953" y2="13.5109" gradientUnits="userSpaceOnUse">
<stop stop-color="#5A4BA6"/>
<stop offset="1" stop-color="#D14798"/>
</linearGradient>
<linearGradient id="paint5_linear_16_1655" x1="27.5665" y1="13.5807" x2="27.5665" y2="2.0835" gradientUnits="userSpaceOnUse">
<stop stop-color="#5A4BA6"/>
<stop offset="1" stop-color="#D14798"/>
</linearGradient>
<linearGradient id="paint6_linear_16_1655" x1="33.1709" y1="13.5804" x2="33.1709" y2="2.01709" gradientUnits="userSpaceOnUse">
<stop stop-color="#5A4BA6"/>
<stop offset="1" stop-color="#D14798"/>
</linearGradient>
<linearGradient id="paint7_linear_16_1655" x1="39.0142" y1="13.7289" x2="39.0142" y2="4.30705" gradientUnits="userSpaceOnUse">
<stop stop-color="#5A4BA6"/>
<stop offset="1" stop-color="#D14798"/>
</linearGradient>
<linearGradient id="paint8_linear_16_1655" x1="46.3171" y1="13.5805" x2="46.3171" y2="4.323" gradientUnits="userSpaceOnUse">
<stop stop-color="#5A4BA6"/>
<stop offset="1" stop-color="#D14798"/>
</linearGradient>
<linearGradient id="paint9_linear_16_1655" x1="53.2386" y1="13.7289" x2="53.2386" y2="4.30705" gradientUnits="userSpaceOnUse">
<stop stop-color="#5A4BA6"/>
<stop offset="1" stop-color="#D14798"/>
</linearGradient>
<linearGradient id="paint10_linear_16_1655" x1="62.1971" y1="13.7289" x2="62.1971" y2="4.30705" gradientUnits="userSpaceOnUse">
<stop stop-color="#5A4BA6"/>
<stop offset="1" stop-color="#D14798"/>
</linearGradient>
<clipPath id="clip0_16_1655">
<rect width="66.5294" height="15.7106" fill="white"/>
</clipPath>
</defs>
</svg>
