<svg width="20" height="25" viewBox="0 0 20 25" fill="none" xmlns="http://www.w3.org/2000/svg">
<path id="Vector" d="M9.98891 0.105263C8.79971 0.105263 7.62216 0.426543 6.52349 1.05076C5.42482 1.67498 4.42655 2.5899 3.58566 3.7433C1.88741 6.0727 0.93335 9.23205 0.93335 12.5263C0.93335 15.8206 1.88741 18.9799 3.58566 21.3093C4.42655 22.4627 5.42482 23.3777 6.52349 24.0019C7.62216 24.6261 8.79971 24.9474 9.98891 24.9474C12.3906 24.9474 14.6939 23.6387 16.3921 21.3093C18.0904 18.9799 19.0445 15.8206 19.0445 12.5263C19.0445 10.8952 18.8102 9.27998 18.3551 7.77298C17.9001 6.26599 17.233 4.89671 16.3921 3.7433C15.5513 2.5899 14.553 1.67498 13.4543 1.05076C12.3556 0.426543 11.1781 0.105263 9.98891 0.105263ZM5.52452 20.3267C5.91391 19.2088 8.28646 18.1158 9.98891 18.1158C11.6913 18.1158 14.0639 19.2088 14.4533 20.3267C13.185 21.713 11.6106 22.4663 9.98891 22.4632C8.30457 22.4632 6.75607 21.6682 5.52452 20.3267ZM15.7482 18.5257C14.4533 16.3644 11.311 15.6316 9.98891 15.6316C8.66679 15.6316 5.52452 16.3644 4.22957 18.5257C3.26623 16.8049 2.74416 14.6959 2.74446 12.5263C2.74446 7.04863 5.99541 2.58947 9.98891 2.58947C13.9824 2.58947 17.2333 7.04863 17.2333 12.5263C17.2333 14.7869 16.6719 16.8737 15.7482 18.5257ZM9.98891 5.07368C8.23213 5.07368 6.81946 7.01137 6.81946 9.42105C6.81946 11.8307 8.23213 13.7684 9.98891 13.7684C11.7457 13.7684 13.1583 11.8307 13.1583 9.42105C13.1583 7.01137 11.7457 5.07368 9.98891 5.07368ZM9.98891 11.2842C9.62865 11.2842 9.28316 11.0879 9.02842 10.7385C8.77368 10.3891 8.63057 9.91519 8.63057 9.42105C8.63057 8.92691 8.77368 8.45301 9.02842 8.1036C9.28316 7.75419 9.62865 7.55789 9.98891 7.55789C10.3492 7.55789 10.6947 7.75419 10.9494 8.1036C11.2041 8.45301 11.3472 8.92691 11.3472 9.42105C11.3472 9.91519 11.2041 10.3891 10.9494 10.7385C10.6947 11.0879 10.3492 11.2842 9.98891 11.2842Z" fill="#5E5E5E"/>
</svg>
