<svg width="19" height="25" viewBox="0 0 19 25" fill="none" xmlns="http://www.w3.org/2000/svg">
<g id="Vector">
<path id="Vector_2" d="M17.9298 5.01934C17.8388 4.86974 17.7249 4.7494 17.5962 4.6668C17.4676 4.58421 17.3273 4.54138 17.1852 4.54135H4.41047L4.06523 1.92628C3.99745 1.41521 3.80104 0.952994 3.51025 0.620209C3.21947 0.287424 2.85276 0.105184 2.47405 0.105263H1.01466C0.757344 0.105263 0.510561 0.245474 0.328608 0.495053C0.146654 0.744631 0.0444336 1.08313 0.0444336 1.43609C0.0444336 1.78904 0.146654 2.12755 0.328608 2.37712C0.510561 2.6267 0.757344 2.76691 1.01466 2.76691H2.20401L4.21805 17.9605C4.27212 18.3641 4.38396 18.7489 4.54712 19.0928C4.25827 19.5564 4.06138 20.1143 3.97545 20.7126C3.88953 21.3109 3.91745 21.9295 4.05654 22.5087C4.19562 23.0879 4.44117 23.6082 4.76951 24.0194C5.09785 24.4306 5.49789 24.7187 5.93105 24.8561C6.3642 24.9935 6.81587 24.9755 7.24247 24.8038C7.66907 24.6321 8.05621 24.3125 8.36656 23.8758C8.67691 23.4391 8.89999 22.9002 9.01428 22.3108C9.12857 21.7215 9.13023 21.1017 9.01907 20.5113H11.7681C11.6332 21.2278 11.665 21.9843 11.859 22.6748C12.0531 23.3653 12.3996 23.9554 12.8502 24.3624C13.3009 24.7694 13.833 24.973 14.3721 24.9447C14.9112 24.9165 15.4304 24.6577 15.8571 24.2046C16.2837 23.7516 16.5964 23.127 16.7514 22.4181C16.9064 21.7092 16.896 20.9517 16.7216 20.2513C16.5472 19.551 16.2175 18.943 15.7788 18.5123C15.34 18.0817 14.814 17.85 14.2745 17.8496H6.44553C6.36992 17.8495 6.29673 17.813 6.23868 17.7466C6.18063 17.6801 6.14139 17.5879 6.12778 17.4858L5.94021 16.0752H14.9294C15.4597 16.0752 15.9732 15.8198 16.3803 15.3537C16.7873 14.8875 17.0622 14.2401 17.1569 13.5244L18.1401 6.1095C18.1653 5.91776 18.1596 5.72074 18.1233 5.53237C18.087 5.344 18.0209 5.16886 17.9298 5.01934ZM7.15946 21.3985C7.15946 21.5739 7.12153 21.7455 7.05045 21.8914C6.97938 22.0373 6.87836 22.151 6.76017 22.2182C6.64198 22.2853 6.51193 22.3029 6.38645 22.2686C6.26098 22.2344 6.14573 22.1499 6.05527 22.0258C5.96481 21.9017 5.90321 21.7437 5.87825 21.5716C5.85329 21.3995 5.8661 21.2211 5.91506 21.0589C5.96401 20.8968 6.04692 20.7583 6.15329 20.6608C6.25966 20.5633 6.38471 20.5113 6.51264 20.5113C6.68419 20.5113 6.84871 20.6047 6.97001 20.7711C7.09132 20.9375 7.15946 21.1632 7.15946 21.3985ZM14.2745 22.2857C14.1466 22.2857 14.0215 22.2337 13.9151 22.1362C13.8088 22.0387 13.7259 21.9001 13.6769 21.738C13.628 21.5759 13.6151 21.3975 13.6401 21.2254C13.6651 21.0533 13.7267 20.8952 13.8171 20.7711C13.9076 20.647 14.0228 20.5625 14.1483 20.5283C14.2738 20.4941 14.4038 20.5116 14.522 20.5788C14.6402 20.6459 14.7412 20.7597 14.8123 20.9056C14.8834 21.0515 14.9213 21.223 14.9213 21.3985C14.9213 21.6338 14.8532 21.8594 14.7319 22.0258C14.6106 22.1922 14.446 22.2857 14.2745 22.2857ZM15.2447 13.0498C15.2312 13.1512 15.1923 13.243 15.1348 13.3094C15.0772 13.3758 15.0046 13.4126 14.9294 13.4135H5.58769L4.76461 7.203H16.0225L15.2447 13.0498Z" fill="#5E5E5E"/>
</g>
</svg>
